# xmcd CD database file
#
# Track frame offsets:
#	150
#	14707
#	33387
#	52877
#	70662
#	88685
#	103700
#	118242
#	132907
#	147112
#	163357
#	183192
#	201520
#	221832
#	244370
#
# Disc length: 3554 seconds
#
# Revision: 0
# Processed by: cddbd v1.5.1PL2 Copyright (c) Steve Scherf et al.
# Submitted via: CDex 1.60beta1-cs1
#
DISCID=e60de00f
DTITLE=George Lynch - The Lost Anthology [CD1]
DYEAR=2006
DGENRE=Hard Rock
TTITLE0=Thinking About You
TTITLE1=Nite Boyz
TTITLE2=Sleepless Nights
TTITLE3=It's Alive
TTITLE4=Paris Is Burning
TTITLE5=Heartless Heart (LIVE)
TTITLE6=Jaihouse Rock (LIVE)
TTITLE7=House On Fire (LIVE)
TTITLE8=I've Been Waiting (Featuring Lisa Furspanker)
TTITLE9=Going Under
TTITLE10=In The Middle (LIVE)
TTITLE11=Cry Again (Instrumental Version)
TTITLE12=Lost Behind The Wall (LIVE)
TTITLE13=Turn On The Action (LIVE)
TTITLE14=When The Good Die Young
EXTD=YEAR: 2006
EXTT0=
EXTT1=
EXTT2=
EXTT3=
EXTT4=
EXTT5=
EXTT6=
EXTT7=
EXTT8=
EXTT9=
EXTT10=
EXTT11=
EXTT12=
EXTT13=
EXTT14=
PLAYORDER=
